<svg id="Layer_1" data-name="Layer 1" xmlns="http://www.w3.org/2000/svg" xmlns:xlink="http://www.w3.org/1999/xlink" viewBox="0 0 869.52 822.4"><defs><style>.cls-1,.cls-6{fill:#f60;}.cls-2{fill:url(#Orange_Yellow);}.cls-3{fill:none;stroke:#f60;stroke-miterlimit:10;stroke-width:7px;}.cls-4{fill:#5a5a5a;}.cls-5{fill:#fff;}.cls-6{font-size:252.2px;font-family:Poppins-ExtraBold, Poppins;font-weight:800;}</style><linearGradient id="Orange_Yellow" x1="466.19" y1="264.75" x2="485.19" y2="264.75" gradientUnits="userSpaceOnUse"><stop offset="0" stop-color="#fff33b"/><stop offset="0.04" stop-color="#fee72e"/><stop offset="0.12" stop-color="#fed51b"/><stop offset="0.2" stop-color="#fdca10"/><stop offset="0.28" stop-color="#fdc70c"/><stop offset="0.67" stop-color="#f3903f"/><stop offset="0.89" stop-color="#ed683c"/><stop offset="1" stop-color="#e93e3a"/></linearGradient></defs><circle class="cls-1" cx="371.46" cy="402.86" r="30.19"/><path class="cls-2" d="M477.65,275.25h-3.92a7.52,7.52,0,0,1-7.15-9.87l1.93-5.95a7.54,7.54,0,0,1,14.31-.05l2,5.95A7.55,7.55,0,0,1,477.65,275.25Z" transform="translate(-65.24 -88.8)"/><path class="cls-3" d="M697.63,520.86l-23.14-7a11.44,11.44,0,0,1-7.59-7.53c-.06-.21-.12-.41-.19-.61a11.43,11.43,0,0,1,1.88-10.52l14.9-19.05a11.45,11.45,0,0,0,.29-13.74l-.35-.49a11.46,11.46,0,0,0-13.07-4.14l-20.61,7.14c-5.85,2-9.79,1.41-12.83-.86l-.37-.28a11.54,11.54,0,0,1-4.78-9.7l.86-24.21a11.43,11.43,0,0,0-7.83-11.27l-.56-.19a11.48,11.48,0,0,0-13,4.33L597.5,442.4a11.83,11.83,0,0,1-9.8,5.06h-.21a12,12,0,0,1-9.85-5.29L564.3,422.36a11.39,11.39,0,0,0-12.77-4.61l-1,.31a11.36,11.36,0,0,0-7.79,11.09c.14,7.24.35,17.64.48,24.23a11.52,11.52,0,0,1-4.93,9.59l-.39.28a11.39,11.39,0,0,1-10.59,1.48l-22.69-8.28a11.52,11.52,0,0,0-13.18,3.93l-.36.48a11.46,11.46,0,0,0,.07,13.74l14.59,19.28a11.39,11.39,0,0,1,1.72,10.54l-.21.61a11.4,11.4,0,0,1-7.71,7.42l-23.24,6.65A11.34,11.34,0,0,0,468,529.74c0,.2,0,.39,0,.59v.58a11.36,11.36,0,0,0,8.15,10.78l23.14,7a11.4,11.4,0,0,1,7.58,7.54l.2.6a11.45,11.45,0,0,1-1.88,10.53l-14.9,19a11.45,11.45,0,0,0-.29,13.74l.35.49a11.46,11.46,0,0,0,13.07,4.15l22.86-7.93a11.45,11.45,0,0,1,10.58,1.64l.5.38a11.39,11.39,0,0,1,4.65,9.58c-.24,6.57-.6,16.92-.87,24.24A11.46,11.46,0,0,0,549,644l.56.18a11.47,11.47,0,0,0,13-4.32l13.72-19.69a11.78,11.78,0,0,1,9.78-5h.22a12,12,0,0,1,9.84,5.28l13.36,19.83a11.47,11.47,0,0,0,13,4.53l.56-.17a11.46,11.46,0,0,0,8-11.15l-.48-24.23a11.41,11.41,0,0,1,4.8-9.52l.51-.36a11.41,11.41,0,0,1,10.6-1.48l22.74,8.29a11.45,11.45,0,0,0,13.13-3.94l.36-.48A11.46,11.46,0,0,0,682.6,588L668,568.66a11.39,11.39,0,0,1-1.71-10.53c.07-.2.14-.41.2-.62a11.44,11.44,0,0,1,7.71-7.41l23.47-6.71a11.17,11.17,0,0,0,8.1-10.62v-1.13A11.37,11.37,0,0,0,697.63,520.86Z" transform="translate(-65.24 -88.8)"/><path class="cls-4" d="M609.26,568h-.11a9.59,9.59,0,0,1-9.1-6.58l-.58-1.78a4.6,4.6,0,0,0-4.36-3.15H576.74a4.59,4.59,0,0,0-4.36,3.15l-.59,1.78a9.58,9.58,0,1,1-18.09-6.28l17.15-47a16.14,16.14,0,0,1,30.34,0l17.07,47A9.57,9.57,0,0,1,609.26,568Z" transform="translate(-65.24 -88.8)"/><path class="cls-5" d="M589.62,527.93a4.59,4.59,0,0,0-8.71,0l-1.2,3.62a4.59,4.59,0,0,0,4.36,6h2.4a4.59,4.59,0,0,0,4.35-6Z" transform="translate(-65.24 -88.8)"/><path class="cls-1" d="M657.2,266.39c0,.7,0,1.39-.05,2.08a10.84,10.84,0,0,1-8.58,10.47L611.43,287a10.91,10.91,0,0,0-8.35,8.25,1.27,1.27,0,0,1-.09.42,11,11,0,0,0,3.92,11l30,23.39A11.06,11.06,0,0,1,640,343.44c-.56,1.15-1.11,2.3-1.67,3.41a11,11,0,0,1-12.4,5.86L598.15,346,589,343.85a10.94,10.94,0,0,0-11.07,3.83c-.09.09-.18.23-.28.32a10.89,10.89,0,0,0-1.24,11.63l16.84,34a11,11,0,0,1-3,13.43c-1,.78-2,1.57-2.95,2.35a11,11,0,0,1-13.7-.09l-29.43-24A10.89,10.89,0,0,0,532.59,384c-.14.05-.27.14-.41.19a10.88,10.88,0,0,0-6.18,9.92l.41,38a11,11,0,0,1-8.49,10.8l-3.69.83a11,11,0,0,1-12.32-6.05l-10.65-22.74a171.5,171.5,0,0,0,19.6-80c0-5.63-.27-11.21-.78-16.7a15.7,15.7,0,0,0,3.6.41h.18a15.76,15.76,0,0,0,14.77-21L507.4,239.22a172.25,172.25,0,0,0,81.94-50.37L626,180.08a11,11,0,0,1,12.4,5.86l1.67,3.41a11.11,11.11,0,0,1-3.14,13.38l-30,23.34a11,11,0,0,0-3.92,11,1.27,1.27,0,0,1,.09.42,10.91,10.91,0,0,0,8.35,8.25l37.14,8.08a10.84,10.84,0,0,1,8.58,10.47C657.2,265,657.2,265.7,657.2,266.39Z" transform="translate(-65.24 -88.8)"/><path class="cls-2" d="M477.65,275.25h-3.92a7.52,7.52,0,0,1-7.15-9.87l1.93-5.95a7.54,7.54,0,0,1,14.31-.05l2,5.95A7.55,7.55,0,0,1,477.65,275.25Z" transform="translate(-65.24 -88.8)"/><path class="cls-1" d="M576.42,173.16a10.89,10.89,0,0,0,1.24,11.63,3.19,3.19,0,0,0,.28.32A10.86,10.86,0,0,0,589,188.94l.33-.09a172.25,172.25,0,0,1-81.94,50.37l-6.78-18.68A25.8,25.8,0,0,0,492,208.73a26.1,26.1,0,0,0-16.28-5.63,26.34,26.34,0,0,0-24.82,17.39l-8.72,23.85a172.37,172.37,0,0,1-115.79-64l36,8.63a10.79,10.79,0,0,0,11-3.83,2.26,2.26,0,0,0,.27-.32A10.89,10.89,0,0,0,375,173.16l-3.88-7.84-13-26.21a11,11,0,0,1,3-13.42c1-.78,1.94-1.57,2.95-2.35a11,11,0,0,1,13.7.14l29.43,23.94a10.81,10.81,0,0,0,11.63,1.34,1.69,1.69,0,0,0,.41-.19,10.92,10.92,0,0,0,6.19-9.92l-.42-38a11,11,0,0,1,8.49-10.8l3.64-.83a11,11,0,0,1,12.32,6l16.1,34.37a11.09,11.09,0,0,0,10.06,6.28h.14a11,11,0,0,0,10.05-6.28l16.1-34.37a11,11,0,0,1,12.32-6c1.25.28,2.49.55,3.69.83a11.06,11.06,0,0,1,8.49,10.8l-.41,38a10.83,10.83,0,0,0,6.18,9.92,1.88,1.88,0,0,0,.41.19,10.81,10.81,0,0,0,11.63-1.34l29.43-23.94a11,11,0,0,1,13.7-.14c1,.78,2,1.57,2.95,2.35a11,11,0,0,1,3,13.42l-14.21,28.75Z" transform="translate(-65.24 -88.8)"/><path class="cls-4" d="M510.86,335a171.5,171.5,0,0,1-19.6,80l-5.45-11.62A11,11,0,0,0,475.76,397h-.14a11.09,11.09,0,0,0-10.06,6.28l-9.69,20.62-6.41,13.74a11,11,0,0,1-12.32,6.05l-3.64-.83A11,11,0,0,1,425,432.1l.42-38a11,11,0,0,0-6.19-9.92c-.13-.05-.27-.14-.41-.19a10.89,10.89,0,0,0-11.63,1.34l-29.43,24a11,11,0,0,1-13.7.09c-1-.78-2-1.57-2.95-2.35a11,11,0,0,1-3-13.43l16.84-34A10.89,10.89,0,0,0,373.71,348c-.09-.09-.18-.23-.27-.32a10.86,10.86,0,0,0-11-3.83l-23.71,5.68-13.29,3.18A11,11,0,0,1,313,346.85c-.55-1.11-1.06-2.26-1.61-3.41a11,11,0,0,1,3.13-13.34l29.94-23.39a10.84,10.84,0,0,0,3.93-11,1.29,1.29,0,0,0-.1-.42A10.78,10.78,0,0,0,340,287l-37.14-8.08a10.92,10.92,0,0,1-8.62-10.47v-4.15a10.92,10.92,0,0,1,8.62-10.47L340,245.77a10.78,10.78,0,0,0,8.3-8.25,1.29,1.29,0,0,0,.1-.42,10.91,10.91,0,0,0-3.88-11l-30-23.38a11,11,0,0,1-3.13-13.34c.55-1.15,1.06-2.26,1.61-3.41a11.07,11.07,0,0,1,12.41-5.86l1,.23a172.37,172.37,0,0,0,115.79,64l-18.64,51.12-.78,2.17a15.7,15.7,0,0,0,11.67,20.76,17.49,17.49,0,0,0,3.09.27,15.67,15.67,0,0,0,14.9-10.75l1-2.9a7.49,7.49,0,0,1,7.15-5.17h30.08a7.51,7.51,0,0,1,7.15,5.17l1,2.9a15.68,15.68,0,0,0,11.3,10.34C510.59,323.74,510.86,329.32,510.86,335Z" transform="translate(-65.24 -88.8)"/><path class="cls-1" d="M477.65,275.25h-3.92a7.52,7.52,0,0,1-7.15-9.87l1.93-5.95a7.54,7.54,0,0,1,14.31-.05l2,5.95A7.55,7.55,0,0,1,477.65,275.25Z" transform="translate(-65.24 -88.8)"/><text class="cls-6" transform="translate(0 731.83) scale(0.58)">Antar<tspan class="cls-4" x="753.8" y="0">Anter</tspan></text></svg>