<?xml version="1.0" standalone="no"?>
<!DOCTYPE svg PUBLIC "-//W3C//DTD SVG 20010904//EN"
 "http://www.w3.org/TR/2001/REC-SVG-20010904/DTD/svg10.dtd">
<svg version="1.0" xmlns="http://www.w3.org/2000/svg"
 width="4096.000000pt" height="4096.000000pt" viewBox="0 0 4096.000000 4096.000000"
 preserveAspectRatio="xMidYMid meet">

<g transform="translate(0.000000,4096.000000) scale(0.100000,-0.100000)"
fill="#000000" stroke="none">
<path d="M19810 40950 c-2422 -85 -4725 -567 -6939 -1452 -1027 -410 -2090
-942 -3031 -1516 -1819 -1110 -3436 -2477 -4833 -4086 -964 -1110 -1802 -2315
-2519 -3626 -158 -287 -488 -945 -627 -1250 -1397 -3046 -2021 -6381 -1826
-9740 214 -3661 1390 -7160 3430 -10200 1163 -1734 2590 -3286 4222 -4592
1568 -1256 3335 -2287 5184 -3026 1375 -550 2801 -948 4249 -1186 813 -134
1542 -210 2465 -258 315 -16 1474 -16 1790 0 519 27 916 57 1335 103 2025 219
3990 736 5867 1543 476 204 1221 565 1653 801 2220 1213 4149 2769 5776 4660
1988 2310 3427 5013 4230 7945 691 2518 890 5187 583 7815 -207 1780 -652
3530 -1321 5204 -1215 3041 -3177 5782 -5673 7926 -3255 2795 -7267 4490
-11520 4864 -262 24 -595 46 -900 61 -279 14 -1299 20 -1595 10z m1535 -2570
c1735 -95 3253 -378 4820 -901 3438 -1148 6461 -3332 8657 -6254 998 -1329
1814 -2806 2405 -4355 1162 -3045 1469 -6391 882 -9620 -531 -2916 -1777
-5644 -3644 -7974 l-160 -200 -8 45 c-48 252 -175 789 -252 1064 -337 1205
-830 2353 -1473 3429 -944 1582 -2185 2958 -3667 4067 -965 723 -2045 1333
-3141 1773 -83 34 -153 64 -155 67 -2 4 68 59 156 124 2092 1535 3413 3874
3639 6445 187 2122 -386 4245 -1612 5968 -1520 2136 -3862 3493 -6457 3742
-519 49 -1123 51 -1645 5 -1589 -142 -3100 -698 -4390 -1615 -2607 -1854
-4024 -4918 -3744 -8100 226 -2577 1559 -4932 3655 -6456 74 -55 135 -103 135
-109 0 -5 -81 -43 -180 -83 -2033 -826 -3882 -2153 -5330 -3826 -1579 -1823
-2662 -4012 -3144 -6355 l-38 -184 -155 194 c-553 690 -1030 1380 -1471 2129
-2006 3403 -2822 7378 -2327 11335 601 4802 3138 9161 7034 12086 2874 2159
6323 3397 9910 3559 132 6 281 12 330 14 177 7 1184 -3 1370 -14z m-515 -5110
c893 -51 1719 -269 2508 -664 1490 -746 2629 -2038 3183 -3609 171 -485 284
-1014 336 -1567 24 -258 24 -842 0 -1100 -77 -828 -281 -1556 -638 -2281 -829
-1683 -2370 -2927 -4184 -3378 -802 -199 -1645 -242 -2465 -125 -1006 143
-1963 525 -2789 1113 -1090 774 -1906 1859 -2347 3118 -304 869 -417 1849
-319 2773 81 760 279 1448 610 2126 322 660 716 1213 1231 1728 688 687 1487
1190 2414 1519 755 268 1641 393 2460 347z m130 -15360 c573 -26 1121 -88
1645 -186 2567 -479 4896 -1823 6610 -3814 1249 -1452 2108 -3171 2520 -5042
135 -617 232 -1362 251 -1943 l7 -180 -179 -146 c-2628 -2142 -5743 -3479
-9089 -3899 -1273 -160 -2600 -182 -3895 -64 -2771 251 -5467 1157 -7820 2629
-696 436 -1313 880 -1969 1419 l-73 61 6 185 c19 588 117 1333 256 1961 602
2709 2148 5094 4380 6756 1364 1016 2920 1709 4590 2047 887 179 1870 256
2760 216z"/>
</g>
</svg>
