<svg width="375" height="453" viewBox="0 0 375 453" fill="none" xmlns="http://www.w3.org/2000/svg">
<g clip-path="url(#clip0_574_1359)">
<path opacity="0.3" d="M506.569 348.793V343.571H499.921V314.229H497.335V302.224H495.12V296.878H491.807V302.224H486.28V314.229H479.148V321.665H472.961V327.346H466.407V258.894H455.236V248.061H452.696V245.788H450.619V242.887H434.693V245.788H433.238V248.061H431.6V306.577H418.212V327.346H411.104V258.894H409.533V255.604H407.792V254.31H401.49V255.604H400.175V253.912H395.397V249.994H393.285V253.912H392.938V255.604H391.438V258.894H388.392V346.472H382.885V342.556H379.217V338.058H378.662V318.762H369.66V338.058H367.722V342.556H366.474V325.363H358.719V304.763H357.797V234.907H358.811V230.361H331.852V234.907H332.684V304.763H328.529V223.664H324.652V209.663H313.747L308.588 203.95V185H307.063V202.263V209.663V216.772V219.964V223.664H302.77V267.695H289.199V332.69H274.518V249.994H254.576V223.59H253.331V219.964H235.187V223.59H233.25V298.524H219.747V307.289H212.476V252.969H204.72V196.606H201.673V193.559L185.747 188.336V196.606H182.009V272.046H177.853V304.763H173.977V211.113H152.095V281.041H146.001V284.815H137.138V274.949H127.536V250.648H119.873V245.788L99.5616 241.387V250.648H95.4065V302.416H81.8811V234.181H76.3417V223.59L57.5069 227.363V234.181H51.9675V305.125H44.7656V227.363H42.9663V226.299H41.5809V218.948H20.8076V258.894H11.5748V248.061H9.03565V245.788H6.95831V242.887H-8.96781V245.788H-10.4216V248.061H-12.0603V344.2H-32.5571V258.894H-34.1264V255.604H-35.869V254.31H-42.1699V255.604H-43.4858V253.912H-48.264V249.994H-50.3753V253.912H-50.7217V255.604H-52.2224V258.894H-55.2692V325.363H-63.8086V342.556H-65.0555V338.058H-66.9938V318.762H-75.9966V338.058H-76.55V342.556H-80.2202V346.472H-85.9672V348.793H-94V453H511V348.793H506.569Z" fill="#262020"/>
<path opacity="0.26" d="M73.7868 166L72 158.041L72.2132 158L74 165.96L73.7868 166Z" fill="#731114"/>
<path opacity="0.26" d="M80.2132 166L80 165.96L81.7868 158L82 158.041L80.2132 166Z" fill="#731114"/>
<path opacity="0.26" d="M80 166L79.0917 170H74.9083L74.7671 169.378L74 166H80Z" fill="#262020"/>
<path opacity="0.26" d="M78.9586 170H74.1619L74 169.378C74.8712 169.287 76.0791 169.098 77.0749 168.704C78.5519 168.118 79.2528 166.521 79.4481 166H80L79.9856 166.057L79.8677 166.508L78.9586 170Z" fill="#C2C2C2"/>
<path opacity="0.26" d="M84.9087 136.723C82.7124 134.436 79.534 133 76 133C79.5489 133 82.5569 136.304 83.5758 140.864C83.8176 141.94 83.9471 143.087 83.9471 144.278C83.9471 147.74 81.4933 154.065 79.3118 159H81.0003C84.2933 154.065 88 147.74 88 144.278C88 141.372 86.8296 138.723 84.9087 136.723Z" fill="#262020"/>
<path opacity="0.26" d="M68.7134 144.278C68.7134 138.05 71.9757 133 76 133C69.9251 133 65 138.05 65 144.278C65 147.74 68.3976 154.065 71.4159 159H72.9636C72.8449 158.703 72.7233 158.404 72.6024 158.1C70.7022 153.318 68.7134 147.533 68.7134 144.278Z" fill="#262020"/>
<path opacity="0.26" d="M79 144.278C79 138.05 77.8806 133 76.5006 133C75.1194 133 74 138.05 74 144.278C74 147.108 74.5153 151.851 75.0794 156.184C75.2052 157.152 75.3329 158.098 75.4574 159H77.5419C77.899 156.434 78.2783 153.494 78.5616 150.775C78.8227 148.264 79 145.94 79 144.278Z" fill="#262020"/>
<path opacity="0.26" d="M74 159H72C72.1391 158.867 72.7256 158.57 73.6124 158C73.7427 158.336 73.8719 158.67 74 159Z" fill="#262020"/>
<path opacity="0.26" d="M74.486 169.088L74.3594 169.117L73.5918 165.697L73.7184 165.669L74.486 169.088Z" fill="#F71B23"/>
<path opacity="0.22" d="M268 83H353L341.424 81.6659C340.956 79.0067 339.187 76.7567 336.754 75.5473C336.08 66.7868 329.146 59.6897 320.19 58.2667C319.114 58.0889 318 58 316.868 58C312.339 58 308.156 59.4403 304.805 61.8597L304.796 61.8776C300.594 64.9103 297.693 69.4997 297.057 74.7377C293.913 75.3606 291.377 77.5574 290.403 80.4207L268 83Z" fill="#262020"/>
<path opacity="0.22" d="M24 25H109L97.424 23.6659C96.9561 21.0067 95.1874 18.7567 92.7543 17.5473C92.0804 8.78679 85.1461 1.6897 76.1903 0.266708C75.1143 0.0889034 74.0004 0 72.8683 0C68.3388 0 64.1559 1.44033 60.8053 3.8597L60.7961 3.8776C56.5943 6.91034 53.6934 11.4997 53.0569 16.7377C49.9126 17.3606 47.3766 19.5574 46.4033 22.4207L24 25Z" fill="#262020"/>
<path d="M152.296 421.608H147.432L146.536 424.088H145L149.032 413H150.712L154.728 424.088H153.192L152.296 421.608ZM151.88 420.424L149.864 414.792L147.848 420.424H151.88ZM160.757 415.16C161.824 415.16 162.688 415.485 163.349 416.136C164.011 416.776 164.341 417.704 164.341 418.92V424.088H162.901V419.128C162.901 418.253 162.683 417.587 162.245 417.128C161.808 416.659 161.211 416.424 160.453 416.424C159.685 416.424 159.072 416.664 158.613 417.144C158.165 417.624 157.941 418.323 157.941 419.24V424.088H156.485V415.32H157.941V416.568C158.229 416.12 158.619 415.773 159.109 415.528C159.611 415.283 160.16 415.16 160.757 415.16ZM168.496 416.52V421.688C168.496 422.115 168.586 422.419 168.768 422.6C168.949 422.771 169.264 422.856 169.712 422.856H170.784V424.088H169.472C168.661 424.088 168.053 423.901 167.648 423.528C167.242 423.155 167.04 422.541 167.04 421.688V416.52H165.904V415.32H167.04V413.112H168.496V415.32H170.784V416.52H168.496ZM172.004 419.672C172.004 418.776 172.185 417.992 172.548 417.32C172.91 416.637 173.406 416.109 174.036 415.736C174.676 415.363 175.385 415.176 176.164 415.176C176.932 415.176 177.598 415.341 178.164 415.672C178.729 416.003 179.15 416.419 179.428 416.92V415.32H180.9V424.088H179.428V422.456C179.14 422.968 178.708 423.395 178.132 423.736C177.566 424.067 176.905 424.232 176.148 424.232C175.369 424.232 174.665 424.04 174.036 423.656C173.406 423.272 172.91 422.733 172.548 422.04C172.185 421.347 172.004 420.557 172.004 419.672ZM179.428 419.688C179.428 419.027 179.294 418.451 179.028 417.96C178.761 417.469 178.398 417.096 177.94 416.84C177.492 416.573 176.996 416.44 176.452 416.44C175.908 416.44 175.412 416.568 174.964 416.824C174.516 417.08 174.158 417.453 173.892 417.944C173.625 418.435 173.492 419.011 173.492 419.672C173.492 420.344 173.625 420.931 173.892 421.432C174.158 421.923 174.516 422.301 174.964 422.568C175.412 422.824 175.908 422.952 176.452 422.952C176.996 422.952 177.492 422.824 177.94 422.568C178.398 422.301 178.761 421.923 179.028 421.432C179.294 420.931 179.428 420.349 179.428 419.688ZM184.816 416.744C185.072 416.243 185.435 415.853 185.904 415.576C186.384 415.299 186.966 415.16 187.648 415.16V416.664H187.264C185.632 416.664 184.816 417.549 184.816 419.32V424.088H183.36V415.32H184.816V416.744ZM195.921 421.608H191.057L190.161 424.088H188.625L192.657 413H194.337L198.353 424.088H196.817L195.921 421.608ZM195.505 420.424L193.489 414.792L191.473 420.424H195.505ZM204.382 415.16C205.449 415.16 206.313 415.485 206.974 416.136C207.636 416.776 207.966 417.704 207.966 418.92V424.088H206.526V419.128C206.526 418.253 206.308 417.587 205.87 417.128C205.433 416.659 204.836 416.424 204.078 416.424C203.31 416.424 202.697 416.664 202.238 417.144C201.79 417.624 201.566 418.323 201.566 419.24V424.088H200.11V415.32H201.566V416.568C201.854 416.12 202.244 415.773 202.734 415.528C203.236 415.283 203.785 415.16 204.382 415.16ZM212.121 416.52V421.688C212.121 422.115 212.211 422.419 212.393 422.6C212.574 422.771 212.889 422.856 213.337 422.856H214.409V424.088H213.097C212.286 424.088 211.678 423.901 211.273 423.528C210.867 423.155 210.665 422.541 210.665 421.688V416.52H209.529V415.32H210.665V413.112H212.121V415.32H214.409V416.52H212.121ZM224.173 419.368C224.173 419.645 224.157 419.939 224.125 420.248H217.117C217.17 421.112 217.463 421.789 217.997 422.28C218.541 422.76 219.197 423 219.965 423C220.594 423 221.117 422.856 221.533 422.568C221.959 422.269 222.258 421.875 222.429 421.384H223.997C223.762 422.227 223.293 422.915 222.589 423.448C221.885 423.971 221.01 424.232 219.965 424.232C219.133 424.232 218.386 424.045 217.725 423.672C217.074 423.299 216.562 422.771 216.189 422.088C215.815 421.395 215.629 420.595 215.629 419.688C215.629 418.781 215.81 417.987 216.173 417.304C216.535 416.621 217.042 416.099 217.693 415.736C218.354 415.363 219.111 415.176 219.965 415.176C220.797 415.176 221.533 415.357 222.173 415.72C222.813 416.083 223.303 416.584 223.645 417.224C223.997 417.853 224.173 418.568 224.173 419.368ZM222.669 419.064C222.669 418.509 222.546 418.035 222.301 417.64C222.055 417.235 221.719 416.931 221.293 416.728C220.877 416.515 220.413 416.408 219.901 416.408C219.165 416.408 218.535 416.643 218.013 417.112C217.501 417.581 217.207 418.232 217.133 419.064H222.669ZM227.551 416.744C227.807 416.243 228.169 415.853 228.639 415.576C229.119 415.299 229.7 415.16 230.383 415.16V416.664H229.999C228.367 416.664 227.551 417.549 227.551 419.32V424.088H226.095V415.32H227.551V416.744Z" fill="white"/>
</g>
<defs>
<clipPath id="clip0_574_1359">
<rect width="375" height="453" fill="white"/>
</clipPath>
</defs>
</svg>
