<svg width="512" height="512" viewBox="0 0 512 512" fill="none" xmlns="http://www.w3.org/2000/svg">
<path d="M261.651 317.787C258.736 318.094 255.744 318.248 252.753 318.248C204.729 318.248 165.835 279.346 165.835 231.313C165.835 183.28 204.729 144.378 252.753 144.378C259.657 144.378 266.331 145.222 272.775 146.68C284.436 93.4297 325.094 86.1403 325.094 86.1403C346.651 81.69 344.273 95.1177 344.273 95.1177C294.639 230.853 367.364 299.756 416.538 329.22C457.197 273.668 469.778 196.248 433.185 117.753C415.771 80.4623 385.699 50.7679 348.262 33.5805C200.587 -34.0184 56.6704 72.0988 56.6704 211.824C56.6704 264.537 77.1532 312.416 110.524 348.019L208.872 464.571C233.344 493.575 278.068 493.575 302.617 464.571C320.338 443.547 338.059 422.524 355.78 401.5C357.314 399.735 357.851 397.279 357.238 394.978C337.829 325 283.208 317.864 261.651 317.787Z" fill="white"/>
</svg>
